<svg width="85" height="85" viewBox="0 0 85 85" fill="none" xmlns="http://www.w3.org/2000/svg">
<mask id="mask0_2_143" style="mask-type:alpha" maskUnits="userSpaceOnUse" x="0" y="0" width="85" height="85">
<circle cx="42.5" cy="42.5" r="42.5" fill="#DBD9D9"/>
</mask>
<g mask="url(#mask0_2_143)">
<circle cx="42.5" cy="42.5" r="42.5" fill="black"/>
<path d="M-4.096 73L26.336 5.8H35.84L66.368 73H56.288L29.12 11.176H32.96L5.792 73H-4.096ZM8.864 56.2L11.456 48.52H49.28L52.064 56.2H8.864Z" fill="white"/>
<path d="M62 73.5H56.5L55.5 71" stroke="white"/>
<path d="M62 73.5H56.5L55.5 71" stroke="white"/>
<path d="M61 73H66C78.3333 65.6667 94.9 42 62.5 6H54C66.5 19.6667 85.8 50.7 63 65.5" stroke="white"/>
<path d="M69.853 21.5052C69.4714 21.2906 69.5519 20.7279 69.1565 20.5302" stroke="white" stroke-width="5" stroke-linecap="round"/>
<path d="M59.9633 9.52612C60.2398 9.55685 60.1774 9.80517 60.3811 9.91304C60.6241 10.0417 60.9847 10.0412 61.2478 10.1452C62.0187 10.45 61.7573 10.5451 62.0836 11.1976C62.55 12.1305 63.1565 12.95 63.5848 13.9138C63.9047 14.6335 64.6438 15.7651 65.326 16.2199C65.693 16.4645 65.9126 17.1472 66.2933 17.4735C66.7459 17.8614 66.9696 18.7123 67.3767 19.1682C67.8647 19.7148 68.3135 20.4422 68.7386 21.0564C69.1054 21.5861 69.4697 22.2677 69.8839 22.7279C70.1378 23.01 69.977 23.6264 70.3018 23.8732C70.8258 24.2714 71.0734 24.7979 71.3852 25.3435C71.9355 26.3065 72.6388 27.004 72.6388 28.1912C72.6388 28.6649 72.6225 29.1417 72.6388 29.6151C72.6831 30.8988 73.6453 31.9622 73.8924 33.1361C74.0154 33.7203 74.6215 34.1319 74.7204 34.676C74.7859 35.0363 74.842 35.2126 75.0687 35.504C75.3644 35.8842 75.1328 35.2838 75.1538 34.885C75.1963 34.0773 75.3772 33.2216 75.0764 32.4396C74.9548 32.1233 75.0974 31.7053 74.7978 31.4723C74.6171 31.3317 74.4295 31.1755 74.3413 30.9461C74.1572 30.4676 73.9132 30.0932 73.8924 29.5532C73.8832 29.3136 73.7531 29.13 73.7531 28.8877C73.7531 28.3275 74.2368 29.4077 74.2794 29.5222C74.6229 30.4471 74.173 31.5123 74.5115 32.4009C74.7806 33.1074 74.7367 33.8099 75.0687 34.5212C75.6416 35.749 75.658 37.3026 76.1211 38.5762C76.2 38.7932 76.3015 39.6521 76.3378 39.5899C76.4618 39.3773 76.7762 38.9972 76.8098 38.7619C76.852 38.4664 76.8165 38.0855 77.0961 37.9107C77.3134 37.7749 77.2464 36.7566 77.2354 37.0749C77.1982 38.1543 77.0961 39.2252 77.0961 40.3096C77.0961 41.0074 77.0735 41.6502 77.2973 42.3216C77.4354 42.7359 77.4298 43.7498 77.7926 43.9312" stroke="white" stroke-width="4" stroke-linecap="round"/>
<path d="M58.2917 8.27246H58.8489" stroke="white" stroke-width="4" stroke-linecap="round"/>
<path d="M75.9818 46.9956C76.8302 46.9956 76.5202 47.577 76.7866 48.1099C76.8553 48.2474 76.9376 48.8208 76.9878 48.8528C77.0994 48.9238 78.0048 47.5207 78.0867 47.398C78.2832 47.1032 79.0314 46.2731 79.0462 46.0205C79.0844 45.3713 78.6632 46.0205 78.2105 46.0205" stroke="white" stroke-width="4" stroke-linecap="round"/>
<path d="M74.3103 57.9997C74.3103 57.497 74.3301 56.3106 74.5889 55.8793C74.9028 55.3562 74.986 54.6608 75.3937 54.2078C75.7146 53.8513 75.9868 53.4085 76.1985 52.9852C76.3833 52.6156 76.8176 52.2308 76.8176 51.8012C76.8176 51.5329 76.3202 52.7798 76.4074 51.9946C76.4695 51.4355 76.7839 49.9444 77.3128 49.6422C77.6209 49.4661 77.5508 50.4595 77.2354 50.6172" stroke="white" stroke-width="4" stroke-linecap="round"/>
<path d="M64.0027 68.7251C65.009 68.6659 66.0256 67.9028 66.9588 67.5798C67.5261 67.3834 67.8545 66.7982 68.3827 66.4964C68.7307 66.2976 69.2534 65.9197 69.5434 65.6297C69.9016 65.2716 70.3988 65.1729 70.7584 64.6934C71.0566 64.2958 71.1955 63.8021 71.5245 63.432C71.9826 62.9166 72.685 62.105 72.8864 61.42C73.0479 60.871 73.7531 60.4655 73.7531 59.8801C73.7531 59.6512 73.9262 59.4898 73.8924 59.2533C73.8799 59.1655 73.3781 59.7521 73.3353 59.7949C73.085 60.0453 72.7847 60.2311 72.5305 60.4759C72.0391 60.9491 71.5116 61.3555 71.0292 61.8379C70.4955 62.3716 70.2042 63.0069 69.7756 63.6023C69.2926 64.273 68.4392 65.3786 67.7017 65.769C67.1915 66.0391 66.718 66.7063 66.301 67.1232C66.0004 67.4239 66.1166 68.295 65.8135 68.4465" stroke="white" stroke-width="4" stroke-linecap="round"/>
<path d="M64.9778 70.118C65.4444 70.118 66.1087 69.9556 66.2391 69.499C66.431 68.8274 67.4329 68.4638 67.8255 67.959C68.1425 67.5515 68.2851 67.0502 68.6303 66.6667C68.9984 66.2577 69.4497 65.9034 69.853 65.5214C70.2593 65.1364 70.663 64.7067 70.8977 64.1904C71.1642 63.604 71.9149 63.2844 72.0894 62.6737C72.1546 62.4454 72.6236 62.1746 72.809 62.0391C73.1461 61.7928 73.4434 61.3779 73.6138 60.9944C73.8744 60.4081 74.3409 60.0201 74.5889 59.4622C74.8456 58.8845 75.2619 58.3235 75.533 57.7211C75.6771 57.4007 75.8464 57.1103 75.9895 56.8002C76.1807 56.386 76.5944 56.1553 76.7866 55.771C76.9067 55.5308 76.8202 55.1996 76.9259 54.9352C77.0357 54.6608 77.1608 54.1916 77.2277 53.8905C77.3498 53.3409 77.3998 52.7679 77.5217 52.219C77.6667 51.5668 77.6899 51.2767 77.6533 50.6172C77.6048 49.7442 77.9319 48.9773 77.9319 48.1099C77.9319 47.2838 77.3978 46.6055 77.3747 45.8194C77.3631 45.4229 77.3747 45.0243 77.3747 44.6276C77.3747 44.2103 77.0961 43.9156 77.0961 43.5133" stroke="white" stroke-width="4" stroke-linecap="round"/>
<path d="M69.7524 27.4567C69.9158 28.0289 70.4817 28.5974 70.8686 29.0326C70.9532 29.1278 70.929 29.1494 70.854 29.0472C70.7172 28.8606 70.6059 28.5816 70.6059 28.3468C70.6059 28.1528 70.4758 28.3291 70.4418 28.4161C70.3141 28.7424 70.2776 29.0791 70.2776 29.4265C70.2776 29.5655 70.2776 30.3308 70.2776 29.8241C70.2776 29.5457 70.2776 29.2672 70.2776 28.9888C70.2776 28.407 70.0084 27.7784 69.5882 27.3582C69.486 27.256 69.2412 27.0109 69.4277 27.3217C69.5961 27.6024 69.7043 27.936 69.818 28.2446C69.945 28.5892 70.022 28.8505 70.0843 29.1931C70.0993 29.2755 70.212 29.764 70.212 29.463C70.212 28.8928 70.1463 28.3207 70.1463 27.7558C70.1463 27.4986 70.1092 27.2063 70.1609 26.9533C70.2033 26.7462 70.3544 26.4655 70.2339 26.2602C70.1038 26.0385 69.9017 25.8333 69.7195 25.6511C69.6421 25.5737 69.536 25.4549 69.4934 25.3556C69.4231 25.1917 69.2921 25.1754 69.1906 25.0419C68.8469 24.5896 68.1765 24.1471 68.1765 23.5171" stroke="white" stroke-linecap="round"/>
<path d="M63.5146 17.148C63.1544 17.148 63.2608 17.1606 63.4453 17.4836C63.6119 17.7752 63.7828 18.0388 63.9743 18.3153C64.1013 18.4988 64.3338 18.8198 64.4995 18.95C64.7426 19.141 64.8289 19.5343 65.0905 19.6942C65.3095 19.828 65.369 20.1372 65.5209 20.3325C65.6948 20.556 65.8442 20.7722 66.0097 21.0074C66.3203 21.4488 66.7936 21.8603 67.0311 22.3352C67.1637 22.6003 67.3225 22.8092 67.4907 23.0429C67.7072 23.3434 67.7965 23.7083 68.0051 24.0095C68.1918 24.2793 68.2438 24.6648 68.4392 24.947C68.5967 25.1746 68.7275 25.3643 68.8477 25.6182C68.9958 25.9308 69.0785 26.2648 69.3219 26.5083C69.3781 26.5645 69.6826 27.0955 69.5408 26.8001C69.2415 26.1767 69.0319 25.3282 68.41 24.9324C68.2246 24.8144 68.0884 24.5485 68.0415 24.3378C68.0162 24.2239 67.6179 23.572 67.6002 23.6119C67.4676 23.9101 67.6566 24.643 67.8154 24.9288C67.9497 25.1705 68.1006 25.381 68.2203 25.6328C68.3359 25.8759 68.5813 26.1655 68.7966 26.3295C68.9372 26.4367 68.9168 26.534 69.0301 26.6359C69.1381 26.7332 69.0957 26.9057 69.1614 27.0335C69.226 27.1591 69.3655 27.1935 69.4095 27.34C69.5434 27.7865 69.6028 28.1975 69.8509 28.6021C70.0483 28.9243 70.2694 29.1456 70.409 29.5068C70.5676 29.9173 70.584 30.5626 70.606 31.0024C70.6183 31.2487 70.7339 31.3639 70.8649 31.5605C71.0161 31.7872 71.1287 32.0069 71.2626 32.2353C71.5155 32.6667 71.4345 33.1749 71.6893 33.5996C71.7898 33.7671 71.8955 33.9441 71.9848 34.1176C72.068 34.2792 72.3029 34.5613 72.3131 34.745C72.3271 34.9964 72.5101 35.2127 72.5101 35.4381C72.5101 35.7851 72.6161 36.0952 72.6414 36.4376C72.6495 36.5463 72.9041 37.0894 72.9041 36.8461" stroke="white" stroke-linecap="round"/>
<path d="M67.9795 23.4514C67.816 23.4514 67.4272 23.1793 67.2718 23.3347C66.9282 23.6783 68.8538 24.4202 68.8988 24.4363" stroke="white" stroke-linecap="round"/>
<path d="M74.5456 38.8816C74.2022 38.8614 73.992 38.1839 73.7941 37.9295C73.5014 37.5531 73.5292 36.9547 73.4293 36.5178C73.297 35.9389 73.4691 36.4894 73.5607 36.744C73.7577 37.2918 74.0173 38.0144 73.951 38.6116C73.9265 38.8315 73.8392 39.04 73.8269 39.2719C73.8131 39.535 73.8833 39.7624 73.889 40.0124C73.8959 40.3185 74.0092 40.6028 74.0203 40.9025C74.0291 41.1394 73.966 40.4307 73.9181 40.1984C73.8075 39.6608 73.5607 39.0709 73.5607 38.5241C73.5607 38.2452 73.4275 38.0483 73.3783 37.7799C73.3139 37.429 73.2669 37.5608 73.4439 37.8201C73.8946 38.48 74.2766 39.2073 74.6441 39.9139C75.0154 40.6279 75.2022 41.6312 75.2022 42.4272C75.2022 43.1345 75.4846 43.778 75.629 44.4664C75.6972 44.7916 76.3432 46.3727 75.8588 46.6149C75.6306 46.729 75.1165 46.3262 75.0745 46.137C74.9156 45.4221 74.8082 44.7565 74.8082 44.0067C74.8082 43.3212 75.0935 42.3964 74.7717 41.7706C74.7444 41.7175 74.5801 41.3439 74.5602 41.435C74.5245 41.5978 74.5996 41.8148 74.6441 41.9749C74.709 42.2088 74.6406 42.8656 74.4945 42.2959C74.4172 41.9944 74.3465 41.6973 74.2537 41.3986C74.0954 40.8884 74.362 41.8207 74.4106 41.9567C74.5441 42.3306 74.6112 42.5155 74.6112 42.916C74.6112 43.5532 74.6112 44.1903 74.6112 44.8275C74.6112 44.9736 74.451 45.9568 74.4434 45.9547C74.2652 45.9037 74.2829 44.2207 74.2829 43.9703C74.2829 43.3149 74.2829 42.6595 74.2829 42.0041C74.2829 41.9342 74.252 41.5153 74.3158 41.5153C74.504 41.5153 74.548 42.1796 74.5602 42.2521C74.6251 42.6393 74.6921 43.0282 74.728 43.4194C74.732 43.4639 74.7892 43.9078 74.6732 43.6565C74.5214 43.3276 74.5452 42.9615 74.4507 42.6169C74.3532 42.2613 74.3654 41.9386 74.1516 41.6393C73.9138 41.3064 74.1897 41.9857 74.2683 42.0989C74.3968 42.2839 74.4757 42.5317 74.4799 42.7555C74.4862 43.088 74.5916 43.3874 74.6076 43.7149C74.6465 44.5118 74.4799 45.3015 74.4799 46.0969C74.4799 46.5184 74.4504 47.0081 74.7425 47.3518C74.9293 47.5715 74.8892 47.9048 74.7717 48.1397C74.6443 48.3945 74.3979 48.6282 74.2319 48.862C74.1106 49.0325 74.0173 49.2483 73.9692 49.4529C73.9531 49.5212 73.9674 49.8708 73.951 49.6243C73.9055 48.9426 73.5607 48.3646 73.5607 47.6728C73.5607 47.5531 73.5826 47.3276 73.7722 47.4612C74.1453 47.724 74.2173 48.3683 74.2173 48.7853C74.2173 49.7848 73.9544 50.9865 74.1808 51.9772C74.3418 52.6815 74.4385 51.9181 74.5237 51.5978C74.6641 51.07 74.8973 50.5832 75.0344 50.0511C75.0796 49.8755 75.1423 49.0467 75.3663 48.9969C75.5865 48.948 75.3979 49.5684 75.37 49.6353C74.9638 50.6076 74.3036 51.3555 74.2829 52.4076C74.2765 52.7351 73.9633 52.976 73.8926 53.294C73.8857 53.3251 74.1778 52.7508 74.2063 52.5608C74.2378 52.3511 74.2173 52.1233 74.2173 51.9115C74.2173 51.656 74.1471 51.9166 74.0859 52.0428C73.971 52.2799 73.9147 52.337 73.7576 52.5098C73.626 52.6545 73.4293 53.29 73.4293 52.8636C73.4293 52.2888 73.3809 51.6818 73.743 51.1892C73.8664 51.0215 73.8233 52.0184 73.8233 52.145C73.8233 52.5572 73.8827 53.0153 73.8197 53.4254C73.7957 53.581 73.6478 53.7037 73.557 53.823C73.36 54.0815 73.2433 54.3398 72.9989 54.5598C72.6919 54.8361 72.7499 55.1028 72.6998 55.4535C72.5921 56.2071 72.2164 57.0012 71.6784 57.551C71.5032 57.7301 71.1519 57.8811 71.1312 58.1711C71.1063 58.5202 71.4697 58.3111 71.6529 58.2149C71.8858 58.0926 72.4315 57.804 72.5137 57.5437C72.6452 57.1275 72.7861 56.7146 72.9332 56.3035C73.0243 56.049 73.1667 55.7598 73.1667 55.4827C73.1667 55.0018 73.1223 54.6009 73.2178 54.1075C73.2986 53.69 73.652 53.4611 73.7613 53.0606C73.8441 52.7568 74.2613 52.6736 74.4434 52.4149C74.7256 52.0142 74.8878 51.5365 75.1438 51.1163C75.8668 49.9294 76.3247 48.6237 76.6066 47.2642C76.7726 46.4632 76.9813 45.7138 77.0261 44.8859C77.0656 44.1554 76.9773 43.4161 77.1063 42.6935C77.179 42.2864 77.2376 41.9489 77.2376 41.5372C77.2376 41.0863 77.1014 40.7794 76.975 40.337C76.721 39.4479 76.113 38.6789 75.888 37.7653C75.6681 36.8732 75.1148 36.0422 74.7425 35.2046" stroke="white" stroke-linecap="round"/>
<path d="M71.9192 58.7767C71.7517 58.7767 71.4876 59.0313 71.3647 59.1378C71.162 59.3135 70.8388 60.0449 70.8795 59.7798C70.9379 59.4007 71.0948 59.0211 71.3246 58.7147C71.5654 58.3936 71.2971 58.9754 71.1239 59.1013C70.8526 59.2987 70.5324 59.3418 70.3287 59.6303C70.1465 59.8884 69.8122 59.9802 69.6356 60.2723C69.3226 60.79 68.9106 61.2256 68.5705 61.7168C68.297 62.1118 67.9218 62.4403 67.6184 62.8112C67.5704 62.8698 67.322 63.0895 67.5382 62.9315C67.8587 62.6973 68.1709 62.513 68.5231 62.3369C68.9004 62.1483 69.0907 61.7863 69.4277 61.5673C69.6847 61.4002 69.8315 61.2071 69.9457 60.9216C70.1452 60.4228 70.4886 59.6527 70.854 59.2874C70.9361 59.2053 70.9991 59.0774 71.051 58.9737C71.1468 58.7821 71.096 59.0024 71.0145 59.0904C70.9434 59.1672 70.7587 59.2179 70.7227 59.302C70.6205 59.5404 71.1891 59.0673 71.3939 58.908" stroke="white" stroke-linecap="round"/>
<path d="M67.126 63.2416C66.9712 63.435 66.9111 63.5578 66.6663 63.6866C66.4524 63.7992 66.2726 63.9767 66.0754 64.1316C65.7229 64.4086 65.4553 64.7882 65.127 65.0801C64.9586 65.2297 64.7988 65.3806 64.6309 65.5397C64.4758 65.6866 64.2516 65.9123 64.0691 66.0285C63.9526 66.1026 63.1903 66.7887 63.1863 66.7216C63.1642 66.3446 62.6098 66.186 63.055 65.868C63.1133 65.8263 63.2778 65.8083 63.3031 65.7367C63.3286 65.6644 63.0862 65.5761 63.2812 65.7002C63.5832 65.8924 63.9071 66.067 64.2004 66.2765C64.4127 66.4281 64.5953 66.4279 64.4485 66.7216C64.3723 66.8739 64.2762 67.1812 64.5433 67.1812C64.9181 67.1812 65.3666 67.1047 65.7179 66.9769C65.9222 66.9026 66.1428 66.6417 66.338 66.5246" stroke="white" stroke-linecap="round"/>
<path d="M65.8784 71.8431C65.6936 71.8431 66.2488 71.9452 66.4292 71.9051C66.5146 71.8861 66.5676 71.6297 66.6663 71.5659C66.7766 71.4945 66.8739 71.3692 66.991 71.2886C67.3731 71.0259 67.9254 71.3128 68.2422 70.8728C68.4408 70.597 68.6443 70.4842 68.928 70.3037C69.2053 70.1272 69.2678 69.7796 69.5225 69.5815C69.709 69.4365 69.9392 69.2718 70.0807 69.0708C70.2838 68.7821 70.5692 68.645 70.8029 68.3996C71.0454 68.1449 71.1485 67.8058 71.361 67.546C71.4443 67.4443 71.576 67.393 71.6711 67.2979C72.0321 66.9369 71.5727 67.2195 71.3537 67.3089C71.0819 67.4198 70.6132 67.4399 70.4418 67.7065C70.3202 67.8956 70.208 68.0989 70.0807 68.2828C70.0646 68.3061 69.7693 68.592 69.9639 68.5163C70.1985 68.4251 70.4888 68.3252 70.6424 68.115C71.0224 67.5951 71.6218 67.2086 72.076 66.7544C72.4272 66.4032 72.5485 65.9539 72.7436 65.5105C72.8713 65.2201 73.1756 64.8742 73.3965 64.6533C73.5111 64.5387 73.7318 63.9869 73.7722 64.2703C73.8305 64.678 73.8723 65.2732 73.4804 65.5397C73.2283 65.7112 72.9326 65.8807 72.7764 66.1671C72.6848 66.3351 72.5414 66.4911 72.459 66.6559C72.2906 66.9928 72.9667 66.094 73.2652 65.8644C73.464 65.7115 73.485 65.4035 73.63 65.2041C73.7794 64.9987 73.8523 64.785 73.9036 64.5402C73.9744 64.2016 74.0014 63.935 74.1151 63.6064C74.2225 63.2962 74.3897 62.7379 74.6404 62.523C74.8989 62.3014 75.0052 62.9496 75.0052 63.1467C75.0052 63.4129 74.6996 63.6009 74.5966 63.8325C74.4797 64.0957 74.4361 64.3862 74.2829 64.635C73.9554 65.1672 74.211 64.3192 74.3632 64.1462C74.7089 63.7534 74.9421 63.1694 75.0709 62.6543C75.1777 62.2269 75.5562 61.8675 75.8223 61.5381C75.9557 61.3729 76.1271 61.2275 76.2199 61.0347C76.2873 60.8948 76.474 60.1388 76.6321 60.1191C76.7817 60.1004 76.5152 60.3973 76.4461 60.5313C76.3121 60.7908 76.2116 61.0795 76.1068 61.352C76.0311 61.5489 75.8723 61.6879 75.7968 61.8955C75.6911 62.186 75.5803 62.4748 75.4794 62.7674C75.4081 62.9742 75.2996 63.1781 75.2022 63.3729" stroke="white" stroke-linecap="round"/>
<path d="M80.258 47.4174C80.258 48.1858 79.7984 48.832 79.7984 49.6353C79.7984 49.9059 79.8587 50.2559 79.7473 50.5035C79.6666 50.6829 79.5357 50.8062 79.5357 51.0069C79.5357 51.3218 79.5357 51.6367 79.5357 51.9516C79.5357 52.7466 79.5627 51.5461 79.6379 51.3206C79.7806 50.8925 79.9918 50.5107 80.1924 50.1095C80.3512 49.7917 80.2185 49.4174 80.1121 49.11C80.1035 49.0851 79.9917 48.895 80.0063 49.0115C80.0426 49.3019 80.1992 49.6094 80.2835 49.8906C80.3312 50.0494 80.2773 50.2624 80.3565 50.405C80.6239 50.8863 80.0618 51.6175 79.8969 52.0793C79.7097 52.6034 79.7337 53.1345 79.3388 53.5859C79.1035 53.8548 78.8796 54.1086 78.6785 54.4103C78.2847 55.0009 78.2999 55.6642 78.1423 56.3472C78.0447 56.7701 78.0838 57.1676 77.8286 57.5437C77.4891 58.044 77.1712 58.5244 76.8802 59.0649C76.6451 59.5015 76.3716 59.9251 76.1542 60.3598C75.693 61.2823 77.0854 60.6504 77.4565 60.5641C77.9483 60.4497 77.6316 60.0339 77.6316 59.6959C77.6316 59.2292 77.9309 58.7084 78.2371 58.3681C78.6428 57.9174 78.6918 57.2046 78.9959 56.6901C79.236 56.2837 79.5255 55.9156 79.7656 55.5155C79.8792 55.3262 79.9004 55.1424 79.9443 54.9392C79.9655 54.8412 80.0245 54.0373 79.9005 54.2498C79.7113 54.5741 79.7259 54.987 79.4701 55.2967C79.311 55.4893 79.1859 55.6608 79.0324 55.8511C78.3424 56.706 77.8741 57.588 77.3252 58.5432C77.1968 58.7665 75.7933 60.8051 75.8952 60.907C76.1146 61.1264 76.6409 60.5996 76.778 60.451C77.1002 60.102 77.0974 59.6495 77.3179 59.2509C77.6233 58.6988 77.8172 58.1092 77.9891 57.5C78.1815 56.8177 78.466 56.0784 79.0725 55.6615C79.4067 55.4317 79.4653 54.9395 79.3059 54.5854C79.1604 54.2619 79.2277 53.9714 79.3388 53.626C79.5107 53.0912 79.5779 52.5977 79.6671 52.0428C79.7738 51.379 79.813 50.6774 80.123 50.0767C80.2491 49.8324 80.2921 49.5199 80.4696 49.307C80.7756 48.9398 80.8884 48.178 80.7468 47.7129C80.6078 47.256 80.5207 46.8205 80.5207 46.3377C80.5207 45.9506 80.6864 45.0328 80.3237 44.791" stroke="white" stroke-linecap="round"/>
<path d="M75.2022 28.6385C75.742 28.6601 75.7663 29.4998 76.1543 29.7584C76.258 29.8276 76.2257 29.9395 76.2819 30.032C76.383 30.1985 76.5556 30.3541 76.6321 30.5281C76.676 30.6278 76.8376 31.2019 76.8437 30.9075C76.85 30.6059 76.7936 30.4332 76.7124 30.1487C76.6558 29.9508 76.4497 29.7959 76.4497 29.587C76.4497 29.3573 76.2442 28.8339 76.6467 29.3462C76.8597 29.6173 76.8437 29.7403 76.8437 30.0831C76.8437 30.6661 77.109 31.2663 77.3398 31.7939C77.4443 32.0327 77.5281 32.2745 77.617 32.5198C77.759 32.9117 77.731 32.8673 77.814 32.3885C77.9076 31.8482 78.2495 31.0949 77.8286 30.674C77.4624 30.3078 77.0601 29.9704 76.913 29.4557C76.8892 29.3723 76.8352 29.2684 76.8802 29.4484C76.9815 29.8536 77.1092 30.2528 77.2741 30.6375C77.565 31.3163 77.8101 31.9994 78.0548 32.6986C78.1405 32.9435 78.3402 33.316 78.3539 33.5631C78.3705 33.8628 78.3539 34.1675 78.3539 34.4677C78.3539 34.9805 78.4294 34.1612 78.5217 33.9899C78.7595 33.5483 78.8135 33.1717 78.8135 32.673C78.8135 32.5486 78.8408 32.4623 78.6968 32.4469C78.5892 32.4353 78.4892 32.386 78.3977 32.3301C78.3938 32.3278 78.276 32.2254 78.2736 32.228C78.0847 32.4379 78.2226 33.2006 78.2226 33.4464C78.2226 33.8403 78.2226 34.2343 78.2226 34.6282C78.2226 34.7745 78.2269 34.9205 78.208 35.066C78.1984 35.1392 77.9562 35.8584 77.9453 35.8393C77.7509 35.499 77.6377 34.9833 77.5003 34.6064C77.4076 34.3522 77.2648 34.0244 77.3179 33.7455C77.424 33.1886 77.2143 33.7181 77.2449 33.9789C77.3302 34.7039 77.6265 35.4549 78.1532 35.9816C78.5795 36.4078 78.7584 35.698 78.8281 35.387C78.9255 34.9521 78.9773 34.5108 79.0616 34.0738C79.1185 33.7785 79.1736 33.8789 79.1929 34.0811C79.2287 34.4574 79.1096 34.8204 79.0616 35.19C79.0165 35.5372 78.9472 35.7262 78.8099 35.2885C78.676 34.8619 78.5558 34.4776 78.3575 34.0811C78.2177 33.8014 78.1451 33.4883 77.8687 33.3041C77.8275 33.2766 77.6895 33.1615 77.7082 33.3114C77.7492 33.6389 78.3393 33.7971 78.5217 34.0957C78.7374 34.4487 78.8265 34.8649 79.0433 35.2119C79.2001 35.4628 79.0828 35.99 79.1564 36.2843C79.1889 36.4143 79.3317 36.587 79.3388 36.7148C79.3729 37.3295 79.4674 37.9052 79.5868 38.5168C79.6134 38.6527 79.6854 39.2008 79.6634 38.7503C79.6367 38.2024 79.5597 37.6563 79.5394 37.1087C79.5135 36.408 79.7334 35.7178 79.6634 35.0186C79.6404 34.7877 79.4089 34.3542 79.2221 34.2197C78.9584 34.0298 78.9058 33.4593 78.8281 33.1764C78.7235 32.7958 78.4527 32.4871 78.321 32.1186C78.2892 32.0294 78.2458 31.8096 78.2262 32.0638C78.1898 32.5371 78.383 33.0947 78.518 33.5448C78.592 33.7914 78.6165 33.935 78.6165 34.2197C78.6165 34.7212 78.7115 35.1177 78.7989 35.5986C78.8878 36.0873 78.7613 36.5875 78.8792 37.0796C78.9679 37.45 79.1338 37.7932 79.233 38.1593C79.3532 38.603 79.2862 39.0421 79.3497 39.4871C79.3985 39.8287 79.5437 40.149 79.6051 40.4866C79.626 40.6015 79.7739 40.6417 79.7948 40.7565C79.9069 41.3732 80.4305 41.9717 80.455 42.6096C80.4775 43.1956 80.3809 43.8483 80.0756 44.3533C79.6079 45.1269 80.3237 43.5492 80.3237 44.2001C80.3237 44.2916 80.4603 44.8135 80.5207 44.6524C80.8743 43.7093 80.7771 42.3297 80.7833 41.3548C80.7869 40.7839 80.9588 40.2899 80.8526 39.706C80.8061 39.45 80.5323 39.1019 80.3966 38.8597C80.2233 38.5502 79.8752 39.3769 79.8349 39.5455C79.7695 39.819 79.7327 40.0897 79.7327 40.3699C79.7327 40.7099 79.6373 41.0275 79.7072 41.3694C79.7882 41.7653 79.9344 42.1668 80.0574 42.5513C80.2507 43.1553 80.4361 43.9139 80.0538 44.47C79.8886 44.7102 79.8699 43.711 79.8787 43.5872C79.9081 43.1705 79.9529 42.7667 79.9151 42.347C79.8644 41.7834 79.7467 41.2191 79.6343 40.6653C79.6309 40.6488 79.4956 40.0586 79.4409 40.1182C79.2937 40.2788 79.301 40.8422 79.2695 41.0374C79.1805 41.5877 79.1064 42.1408 79.0105 42.6899C78.9783 42.8738 78.9522 43.3099 78.8208 43.4742C78.6998 43.6254 78.8317 43.0866 78.8536 42.8942C78.9032 42.4589 78.9713 42.024 79.0433 41.5919C79.1027 41.2356 79.1857 40.8625 79.2877 40.5158C79.3617 40.2644 79.5796 40.9182 79.5868 40.9389C79.7378 41.3686 80.0204 40.9877 80.1778 40.7201C80.3239 40.4717 80.2341 40.2975 80.1267 40.0489C79.734 39.1394 78.7467 38.6461 78.0256 38.028" stroke="white" stroke-linecap="round"/>
<path d="M67.6512 16.8197C68.0741 16.8197 68.2791 16.9074 68.6507 17.0313C68.9056 17.1162 68.9925 17.5417 69.0812 17.79C69.1696 18.0376 69.3308 18.3327 69.4569 18.5597C69.5023 18.6415 69.4736 18.2905 69.5554 18.1986C69.7615 17.9667 69.621 17.0558 69.621 16.7613C69.621 16.2072 69.805 17.1255 69.8691 17.2793C70.0423 17.695 70.1083 18.1816 70.2412 18.6181C70.3136 18.856 70.3808 19.1068 70.5549 19.3002C70.6387 19.3933 70.7066 19.76 70.7664 19.5993C70.9335 19.1503 71.0152 18.1691 70.657 17.7535C70.5158 17.5898 70.5245 17.3783 70.4017 17.2027C70.3088 17.0701 69.9562 16.0731 70.0551 16.7103C70.1417 17.2685 70.3397 17.7788 70.6424 18.2496C70.914 18.672 70.8952 19.2476 71.1677 19.6686C71.242 19.7835 71.4023 19.8315 71.4595 19.9532C71.5656 20.1786 71.6518 20.4019 71.7878 20.6134C71.9894 20.9271 71.9363 20.4559 71.8863 20.2961C71.7996 20.0185 71.8788 19.7232 71.7878 19.4388C71.7198 19.2264 71.5252 19.1231 71.5252 18.888C71.5252 18.8246 71.512 18.6807 71.5325 18.8698C71.5887 19.3895 71.6226 19.985 71.8389 20.4675C72.085 21.0165 72.1448 21.6564 72.2985 22.2403C72.3333 22.3725 72.4206 22.4413 72.4481 22.565C72.4814 22.715 72.6619 22.8786 72.7435 23.0027C72.9673 23.3428 73.1206 23.7147 73.298 24.0788C73.4585 24.4083 73.4763 24.2594 73.4986 23.9694C73.513 23.7823 73.6037 23.5569 73.5461 23.3712C73.4957 23.2088 73.4293 23.071 73.4293 22.8969C73.4293 22.7452 73.313 22.6105 73.2725 22.4665C73.2175 22.271 73.2672 22.068 73.2178 21.8756C73.1808 21.7317 73.057 21.622 72.9843 21.4962C72.8532 21.2693 72.7703 20.9839 72.6815 20.7374C72.5189 20.2857 72.5864 19.7851 72.2329 19.4315C71.8529 19.0515 71.7742 18.4687 71.4887 18.0016C71.1493 17.4462 71.2687 18.1081 71.3282 18.4831C71.443 19.2065 71.8157 19.7532 72.0213 20.4383C72.1927 21.0099 72.3602 21.5677 72.7217 22.0543C73.1875 22.6815 73.7172 23.2541 74.1151 23.9329C74.7015 24.9333 74.9527 26.1036 75.3043 27.1904C75.4409 27.6126 75.7012 27.8609 75.9098 28.23C76.1657 28.6827 76.1965 29.3965 76.6102 29.7512C76.6633 29.7967 76.6921 29.8743 76.7087 29.9408C76.8177 30.3768 76.7189 29.0358 76.6321 28.5948C76.3992 27.4117 75.4752 26.2852 74.8666 25.2972C74.5704 24.8164 73.9865 23.0328 73.495 24.2685C73.3448 24.6461 73.3318 25.0773 73.4585 25.465C73.5186 25.649 73.6627 25.7258 73.7321 25.8954C73.8425 26.1653 74.1516 26.4035 74.1516 26.6724C74.1516 26.6919 74.166 27.0618 74.2464 27.0044C74.3667 26.9185 74.2317 26.4316 74.2027 26.304C74.0629 25.6891 74.1982 24.9916 73.9911 24.3998C73.9654 24.3264 73.8788 24.2651 73.9072 24.4071C74.0175 24.9587 74.3984 25.4531 74.7425 25.8808C75.0175 26.2225 75.3416 26.5208 75.5633 26.9059C75.9909 27.6486 76.2157 28.5692 76.7817 29.2295C77.3962 29.9465 77.0954 28.2957 77.0407 28.0768C76.8186 27.1886 76.279 26.4113 76.0193 25.5598C75.9515 25.3376 75.7397 25.2595 75.629 25.0601C75.4581 24.7526 75.2546 24.4594 75.1037 24.1408C74.9581 23.8336 74.7148 23.5143 74.5164 23.2252C74.3239 22.9447 74.2013 22.6321 73.9874 22.368C73.7717 22.1015 73.4659 21.6028 73.1083 21.5327C72.5209 21.4175 71.9987 21.2846 71.3939 21.2846" stroke="white" stroke-linecap="round"/>
<path d="M56.8829 7.16759C56.6331 7.16759 56.4327 7.10949 56.2409 6.95602C56.0538 6.80637 55.8455 6.75106 55.6682 6.61313C55.2409 6.28078 55.654 7.52582 55.6646 7.54696C55.8642 7.94619 56.1769 8.29507 56.54 8.54646C56.775 8.70915 56.8278 8.78373 56.8173 8.41514C56.8042 7.95759 56.5181 7.56766 56.489 7.11652C56.4734 6.87585 56.5588 6.40117 56.9157 6.67879C57.109 6.82913 57.1898 6.98665 57.3571 7.17489C57.5583 7.4012 57.848 7.57018 58.032 7.79501C58.1644 7.95683 58.3511 8.1386 58.4296 8.33124C58.6403 8.84855 58.6206 9.46009 58.9184 9.93992C59.3321 10.6065 60.0152 11.1032 60.2352 11.8733C60.4934 12.7769 60.2253 11.8548 59.9398 11.6471C59.9007 11.6186 59.8178 11.637 59.8522 11.6982C59.8954 11.775 60.012 11.7885 60.0674 11.8696C60.2742 12.1718 60.3765 12.5088 60.5964 12.7998C61.0251 13.3672 61.4135 13.9495 61.7454 14.558C61.9765 14.9816 62.7324 15.9004 63.252 15.9004" stroke="white" stroke-linecap="round"/>
<path d="M62.661 9.4001C62.661 9.00268 62.9839 8.40974 63.3906 8.81645C63.6659 9.09172 64.0887 9.32785 64.2223 9.71381C64.2995 9.93695 64.4849 10.0348 64.5944 10.2537C64.8562 10.7773 64.4329 9.83601 64.3427 9.70652C64.1634 9.44938 63.9807 9.21604 63.8429 8.94048C63.722 8.69868 63.4841 8.50921 63.4161 8.25105C63.3586 8.03262 63.3147 7.99773 63.1717 7.83884C62.9003 7.53721 62.6782 7.13023 62.3218 6.93419C61.9542 6.732 61.6602 6.64237 61.2311 6.64237C61.0788 6.64237 60.4942 6.54661 60.4942 6.74086C60.4942 7.03663 60.7562 7.12438 60.9174 7.31356C61.2974 7.75965 62.1517 7.70112 62.4422 8.22916C62.5946 8.50638 62.8262 8.77913 63.055 8.9952C63.1538 9.08847 63.2719 9.18588 63.3906 9.25419C63.467 9.2982 63.2267 8.78035 63.2228 8.77268C63.0749 8.4813 62.8814 8.13945 62.6464 7.9045C62.3829 7.64102 62.0295 7.47929 61.7564 7.21142C61.5178 6.97747 61.2168 6.64237 60.8481 6.64237C60.5361 6.64237 60.3664 6.55289 60.0857 6.44538C60.0006 6.41279 59.2462 6.1159 59.4473 6.35054C59.5837 6.50969 59.8924 6.75144 60.0857 6.82476C60.7743 7.08595 61.3881 7.43528 62.0518 7.74765C62.3989 7.91097 62.6107 8.13276 62.7924 8.48086C63.1543 9.17457 63.884 9.53722 64.2369 10.2537C64.3973 10.5794 64.6002 10.8697 64.7768 11.1875C64.965 11.5264 65.0882 11.9265 65.2218 12.2892C65.3367 12.601 65.5167 12.8294 65.7106 13.0917C65.8426 13.2703 65.8555 12.8858 65.8638 12.8144C65.9065 12.4464 65.8155 12.1173 65.6851 11.7748C65.4704 11.2114 65.2442 10.6277 64.8607 10.1588C64.7593 10.0349 64.5715 9.90705 64.5652 9.743C64.5559 9.50295 64.5437 9.47504 64.733 9.62991C65.1261 9.95156 65.3774 10.4735 65.6303 10.9103C65.7744 11.1592 66.1036 11.3982 66.1994 11.6617C66.2541 11.8122 66.2929 11.9515 66.3526 12.1068C66.4732 12.4203 66.5933 12.8727 66.8305 13.1099C67.1802 13.4597 67.5391 13.7285 67.8117 14.1568C68.0547 14.5386 68.1193 15.1177 68.5048 15.3898C68.6256 15.475 68.7774 15.8285 68.8659 15.9661C68.9738 16.134 69.0543 16.3157 69.1468 16.4914C69.3193 16.8191 69.3584 15.9326 69.3584 15.8202C69.3584 15.5752 69.3726 15.3911 69.2307 15.1782C69.1197 15.0117 68.9616 14.8232 68.8842 14.6529C68.5887 14.0028 68.2347 13.4324 67.8446 12.8473C67.6737 12.591 67.4231 12.3299 67.2208 12.0995C67.0466 11.9011 66.9946 12.5319 66.9946 12.6248C66.9946 13.0321 66.8829 13.6507 67.0931 14.0292C67.1714 14.1702 67.1784 14.3572 67.2244 14.5107C67.2864 14.7173 67.4172 14.8839 67.5053 15.0761C67.5515 15.1768 67.5794 15.33 67.5856 15.4409C67.5872 15.4701 67.2347 15.065 67.1697 14.9922C66.8299 14.6119 66.4122 14.2687 66.1812 13.8066C66.1121 13.6686 66.0601 13.5349 65.9769 13.4054C65.8378 13.189 65.8784 13.572 65.8784 13.6534C65.8784 14.0599 65.9065 14.4595 66.0535 14.8426C66.2665 15.3979 66.6666 15.6401 67.1186 15.9953C67.3752 16.1969 67.5529 16.4819 67.8482 16.6373C67.9052 16.6673 68.0454 16.8078 68.1108 16.7905C68.2309 16.7589 68.2422 16.3675 68.2422 16.2616C68.2422 16.0409 67.9955 15.8975 67.8628 15.7546C67.7068 15.5866 67.1259 15.2061 67.1259 14.9812" stroke="white" stroke-linecap="round"/>
<path d="M60.5 73.5C57.3 73.5 59.5 73.5 61 73.5H56.5L55.5 71" stroke="black"/>
<path d="M55.5 71L56.5 73.5H62" stroke="black"/>
<path d="M64.0239 65.9493C64.0285 65.8068 64.0594 65.6652 64.0594 65.5236" stroke="white" stroke-linecap="round"/>
<path d="M56 71L57 73H62L56 70L57 71L56.5 71.5" stroke="white"/>
<path d="M56.1108 70.838C56.0548 70.838 56.0504 70.9078 56.0504 70.9589" stroke="white"/>
<path d="M56.0201 71.0647C56.0201 70.9872 56.0352 70.9138 56.0352 70.838" stroke="white"/>
<path d="M56.0654 70.9286C56.0654 70.9599 56.0695 70.9832 56.047 71.0076C56.0344 71.0212 55.987 71.1143 56.0201 71.0647" stroke="white" stroke-linecap="round"/>
<path d="M56.2015 70.8077C56.1045 70.8077 55.9597 70.7423 55.9597 70.8984" stroke="white" stroke-linecap="round"/>
<path d="M55.9143 70.8984C55.9282 70.9002 55.9243 70.9033 55.9294 70.9136" stroke="white" stroke-linecap="round"/>
</g>
</svg>
