<svg width="304" height="304" viewBox="0 0 304 304" fill="none" xmlns="http://www.w3.org/2000/svg">
<path d="M91.6983 214.028C104.027 197.961 116.353 181.896 130.943 162.879C102.908 160.587 78.6486 158.605 53.9618 156.589C53.9557 156.236 53.9577 156.36 53.9517 156.007C78.3426 153.163 102.15 150.387 130.953 147.029C113.092 125.615 97.6871 107.148 82.0048 88.3466C82.8013 87.5359 82.5196 87.8217 83.316 87.0131C102.436 102.418 121.032 117.401 144.193 136.06C145.697 107.944 146.84 86.6138 148.03 64.3671C149.993 64.286 149.29 64.3144 151.252 64.2354C154.239 86.2348 157.127 107.501 160.745 134.139C181.559 116.953 199.697 101.976 218.142 86.7476C219.06 87.6575 218.742 87.3414 219.66 88.2514C204.807 106.698 190.336 124.666 172.583 146.715C200.713 149.986 225.13 152.825 250.048 155.723C249.997 157.409 250.017 156.777 249.967 158.463L174.488 162.29C173.788 163.864 173.665 164.144 172.966 165.717C188.433 184.684 203.899 203.652 219.366 222.619C218.612 223.369 218.876 223.108 218.122 223.858C199.661 208.708 181.676 193.95 159.618 175.85C157.295 200.275 155.437 219.837 153.577 239.4L149.884 239.767C148.538 229.998 146.651 220.264 145.997 210.449C145.289 199.819 145.899 189.104 145.843 178.432C144.493 177.765 144.24 177.639 142.89 176.973C126.016 189.516 109.144 202.057 92.2698 214.6L91.7004 214.03L91.6983 214.028Z" fill="#E5E2D4"/>
</svg>
