<svg width="72px" height="72px" viewBox="0 0 72 72" version="1.1" xmlns="http://www.w3.org/2000/svg" xmlns:xlink="http://www.w3.org/1999/xlink">
    <title>icon-grid</title>
    <g id="Page-1" stroke="none" stroke-width="1" fill="currentColor" fill-rule="evenodd">
        <g id="Artboard" transform="translate(-1977.000000, -522.000000)" fill="currentColor" fill-rule="nonzero">
            <g id="icon-grid" transform="translate(1977.275620, 522.199200)">
                <path d="M46.48438,32.5196 L63.33008,32.5196 C65.9668133,32.5196 67.92808,31.8522667 69.21388,30.5176 C70.49968,29.1829333 71.14258,27.1809667 71.14258,24.5117 L71.14258,8.0078 C71.14258,5.33853333 70.49968,3.3366 69.21388,2.002 C67.92808,0.667333333 65.9668133,0 63.33008,0 L46.48438,0 C43.8802467,0 41.9271133,0.667333333 40.62498,2.002 C39.3229133,3.3366 38.67188,5.33853333 38.67188,8.0078 L38.67188,24.5117 C38.67188,27.1809667 39.3229133,29.1829333 40.62498,30.5176 C41.9271133,31.8522667 43.8802467,32.5196 46.48438,32.5196 Z M7.81248,32.5196 L24.65818,32.5196 C27.26238,32.5196 29.2155133,31.8522667 30.51758,30.5176 C31.8196467,29.1829333 32.47068,27.1809667 32.47068,24.5117 L32.47068,8.0078 C32.47068,5.33853333 31.8196467,3.3366 30.51758,2.002 C29.2155133,0.667333333 27.26238,0 24.65818,0 L7.81248,0 C5.20834667,0 3.25524667,0.667333333 1.95318,2.002 C0.65106,3.3366 1.77635684e-15,5.33853333 1.77635684e-15,8.0078 L1.77635684e-15,24.5117 C1.77635684e-15,27.1809667 0.65106,29.1829333 1.95318,30.5176 C3.25524667,31.8522667 5.20834667,32.5196 7.81248,32.5196 Z M46.48438,71.191425 L63.33008,71.191425 C65.9668133,71.191425 67.92808,70.5322467 69.21388,69.21389 C70.49968,67.89553 71.14258,65.8854367 71.14258,63.18361 L71.14258,46.6797 C71.14258,44.0104333 70.49968,42.0166333 69.21388,40.6983 C67.92808,39.3799 65.9668133,38.7207 63.33008,38.7207 L46.48438,38.7207 C43.8802467,38.7207 41.9271133,39.3799 40.62498,40.6983 C39.3229133,42.0166333 38.67188,44.0104333 38.67188,46.6797 L38.67188,63.18361 C38.67188,65.8854367 39.3229133,67.89553 40.62498,69.21389 C41.9271133,70.5322467 43.8802467,71.191425 46.48438,71.191425 Z M7.81248,71.191425 L24.65818,71.191425 C27.26238,71.191425 29.2155133,70.5322467 30.51758,69.21389 C31.8196467,67.89553 32.47068,65.8854367 32.47068,63.18361 L32.47068,46.6797 C32.47068,44.0104333 31.8196467,42.0166333 30.51758,40.6983 C29.2155133,39.3799 27.26238,38.7207 24.65818,38.7207 L7.81248,38.7207 C5.20834667,38.7207 3.25524667,39.3799 1.95318,40.6983 C0.65106,42.0166333 1.77635684e-15,44.0104333 1.77635684e-15,46.6797 L1.77635684e-15,63.18361 C1.77635684e-15,65.8854367 0.65106,67.89553 1.95318,69.21389 C3.25524667,70.5322467 5.20834667,71.191425 7.81248,71.191425 Z M46.58208,26.3672 C45.3776133,26.3672 44.77538,25.7487 44.77538,24.5117 L44.77538,7.959 C44.77538,6.7546 45.3776133,6.1524 46.58208,6.1524 L63.28128,6.1524 C64.4531467,6.1524 65.03908,6.7546 65.03908,7.959 L65.03908,24.5117 C65.03908,25.7487 64.4531467,26.3672 63.28128,26.3672 L46.58208,26.3672 Z M7.86138,26.3672 C6.68944667,26.3672 6.10348,25.7487 6.10348,24.5117 L6.10348,7.959 C6.10348,6.7546 6.68944667,6.1524 7.86138,6.1524 L24.56058,6.1524 C25.76498,6.1524 26.36718,6.7546 26.36718,7.959 L26.36718,24.5117 C26.36718,25.7487 25.76498,26.3672 24.56058,26.3672 L7.86138,26.3672 Z M7.86138,65.03908 C6.68944667,65.03908 6.10348,64.4368667 6.10348,63.23244 L6.10348,46.6797 C6.10348,45.4427 6.68944667,44.8242 7.86138,44.8242 L24.56058,44.8242 C25.76498,44.8242 26.36718,45.4427 26.36718,46.6797 L26.36718,63.23244 C26.36718,64.4368667 25.76498,65.03908 24.56058,65.03908 L7.86138,65.03908 Z M46.58208,65.03908 C45.3776133,65.03908 44.77538,64.4368667 44.77538,63.23244 L44.77538,46.6797 C44.77538,45.4427 45.3776133,44.8242 46.58208,44.8242 L63.28128,44.8242 C64.4531467,44.8242 65.03908,45.4427 65.03908,46.6797 L65.03908,63.23244 C65.03908,64.4368667 64.4531467,65.03908 63.28128,65.03908 L46.58208,65.03908 Z" id="Shape"></path>
            </g>
        </g>
    </g>
</svg>