<svg width="79px" height="40px" viewBox="0 0 79 40" version="1.1" xmlns="http://www.w3.org/2000/svg" xmlns:xlink="http://www.w3.org/1999/xlink">
    <title>icon-list</title>
    <g id="Page-1" stroke="none" stroke-width="1" fill="currentColor" fill-rule="evenodd">
        <g id="Artboard" transform="translate(-1788.000000, -502.000000)" fill="currentColor" fill-rule="nonzero">
            <g id="icon-list" transform="translate(1788.875620, 502.214800)">
                <path d="M3.27148,22.9004 L74.60938,22.9004 C75.5208467,22.9004 76.3021133,22.5749 76.95318,21.9239 C77.60418,21.2728333 77.92968,20.4915667 77.92968,19.5801 C77.92968,18.6361 77.60418,17.8467333 76.95318,17.212 C76.3021133,16.5772 75.5208467,16.2598 74.60938,16.2598 L3.27148,16.2598 C2.36001333,16.2598 1.58691333,16.5772 0.95218,17.212 C0.317393333,17.8467333 0,18.6361 0,19.5801 C0,20.4915667 0.317393333,21.2728333 0.95218,21.9239 C1.58691333,22.5749 2.36001333,22.9004 3.27148,22.9004 Z M3.27148,39.1602 L74.60938,39.1602 C75.5208467,39.1602 76.3021133,38.8428333 76.95318,38.2081 C77.60418,37.5733 77.92968,36.7839 77.92968,35.8399 C77.92968,34.9284333 77.60418,34.1471667 76.95318,33.4961 C76.3021133,32.8451 75.5208467,32.5196 74.60938,32.5196 L3.27148,32.5196 C2.36001333,32.5196 1.58691333,32.8451 0.95218,33.4961 C0.317393333,34.1471667 0,34.9284333 0,35.8399 C0,36.7839 0.317393333,37.5733 0.95218,38.2081 C1.58691333,38.8428333 2.36001333,39.1602 3.27148,39.1602 Z M3.27148,6.5918 L74.60938,6.5918 C75.5208467,6.5918 76.3021133,6.27443333 76.95318,5.6397 C77.60418,5.0049 77.92968,4.2318 77.92968,3.3204 C77.92968,2.37633333 77.60418,1.58693333 76.95318,0.9522 C76.3021133,0.3174 75.5208467,0 74.60938,0 L3.27148,0 C2.36001333,0 1.58691333,0.3174 0.95218,0.9522 C0.317393333,1.58693333 0,2.37633333 0,3.3204 C0,4.2318 0.317393333,5.0049 0.95218,5.6397 C1.58691333,6.27443333 2.36001333,6.5918 3.27148,6.5918 Z" id="Shape"></path>
            </g>
        </g>
    </g>
</svg>