<svg width="72px" height="60px" viewBox="0 0 72 60" version="1.1" xmlns="http://www.w3.org/2000/svg" xmlns:xlink="http://www.w3.org/1999/xlink">
    <title>arrow-right</title>
    <g id="Page-1" stroke="none" stroke-width="1" fill="none" fill-rule="evenodd">
        <g id="Artboard" transform="translate(-1518.000000, -512.000000)" fill="#000000" fill-rule="nonzero">
            <g id="arrow-right" transform="translate(1518.325620, 512.449200)">
                <path d="M71.04488,29.2969 C71.04488,28.1901 70.58918,27.2135333 69.67778,26.3672 L44.48238,1.2207 C43.6360467,0.4069 42.67578,0 41.60158,0 C40.52738,0 39.6240467,0.358066667 38.89158,1.0742 C38.15918,1.7904 37.79298,2.70186667 37.79298,3.8086 C37.79298,4.32946667 37.88248,4.83403333 38.06148,5.3223 C38.2405467,5.81056667 38.5091133,6.21746667 38.86718,6.543 L45.60548,13.5254 L62.10938,28.418 L62.98828,26.2696 L49.99998,25.3418 L3.90628,25.3418 C2.73441333,25.3418 1.79038,25.7161667 1.07418,26.4649 C0.35806,27.2135667 1.77635684e-15,28.1575667 1.77635684e-15,29.2969 C1.77635684e-15,30.4362333 0.35806,31.3802333 1.07418,32.1289 C1.79038,32.8776333 2.73441333,33.252 3.90628,33.252 L49.99998,33.252 L62.98828,32.3242 L62.10938,30.2246 L45.60548,45.0684 L38.86718,52.0508 C38.5091133,52.3763333 38.2405467,52.7832333 38.06148,53.2715 C37.88248,53.7597667 37.79298,54.2643267 37.79298,54.78518 C37.79298,55.8919467 38.15918,56.8034033 38.89158,57.51955 C39.6240467,58.2356967 40.52738,58.59377 41.60158,58.59377 C42.67578,58.59377 43.6360467,58.18687 44.48238,57.37307 L69.67778,32.2266 C70.58918,31.3802 71.04488,30.4036333 71.04488,29.2969 Z" id="Path"></path>
            </g>
        </g>
    </g>
</svg>